<svg width="20" height="21" viewBox="0 0 20 21" fill="none" xmlns="http://www.w3.org/2000/svg">
<path d="M10.0003 17.167C11.7684 17.167 13.4641 16.4646 14.7144 15.2144C15.9646 13.9641 16.667 12.2684 16.667 10.5003C16.667 8.73222 15.9646 7.03652 14.7144 5.78628C13.4641 4.53604 11.7684 3.83366 10.0003 3.83366C8.23222 3.83366 6.53652 4.53604 5.28628 5.78628C4.03604 7.03652 3.33366 8.73222 3.33366 10.5003C3.33366 12.2684 4.03604 13.9641 5.28628 15.2144C6.53652 16.4646 8.23222 17.167 10.0003 17.167ZM10.0003 2.16699C11.0947 2.16699 12.1783 2.38254 13.1894 2.80133C14.2004 3.22012 15.1191 3.83395 15.8929 4.60777C16.6667 5.38159 17.2805 6.30025 17.6993 7.3113C18.1181 8.32234 18.3337 9.40598 18.3337 10.5003C18.3337 12.7105 17.4557 14.8301 15.8929 16.3929C14.3301 17.9557 12.2105 18.8337 10.0003 18.8337C5.39199 18.8337 1.66699 15.0837 1.66699 10.5003C1.66699 8.29019 2.54497 6.17057 4.10777 4.60777C5.67057 3.04497 7.79019 2.16699 10.0003 2.16699ZM10.417 6.33366V10.7087L14.167 12.9337L13.542 13.9587L9.16699 11.3337V6.33366H10.417Z" fill="#1E1E1E"/>
</svg>
