<svg width="25" height="24" viewBox="0 0 25 24" fill="none" xmlns="http://www.w3.org/2000/svg">
<g clip-path="url(#clip0_883_684)">
<path d="M17.9727 6.97266L19.0273 8.02734L10.25 16.8047L5.97266 12.5273L7.02734 11.4727L10.25 14.6953L17.9727 6.97266ZM12.5 0C13.6016 0 14.6641 0.140625 15.6875 0.421875C16.7109 0.703125 17.668 1.10547 18.5586 1.62891C19.4492 2.15234 20.2578 2.77734 20.9844 3.50391C21.7109 4.23047 22.3359 5.04297 22.8594 5.94141C23.3828 6.83984 23.7852 7.79688 24.0664 8.8125C24.3477 9.82812 24.4922 10.8906 24.5 12C24.5 13.1016 24.3594 14.1641 24.0781 15.1875C23.7969 16.2109 23.3945 17.168 22.8711 18.0586C22.3477 18.9492 21.7227 19.7578 20.9961 20.4844C20.2695 21.2109 19.457 21.8359 18.5586 22.3594C17.6602 22.8828 16.7031 23.2852 15.6875 23.5664C14.6719 23.8477 13.6094 23.9922 12.5 24C11.3984 24 10.3359 23.8594 9.3125 23.5781C8.28906 23.2969 7.33203 22.8945 6.44141 22.3711C5.55078 21.8477 4.74219 21.2227 4.01562 20.4961C3.28906 19.7695 2.66406 18.957 2.14062 18.0586C1.61719 17.1602 1.21484 16.207 0.933594 15.1992C0.652344 14.1914 0.507812 13.125 0.5 12C0.5 10.8984 0.640625 9.83594 0.921875 8.8125C1.20312 7.78906 1.60547 6.83203 2.12891 5.94141C2.65234 5.05078 3.27734 4.24219 4.00391 3.51562C4.73047 2.78906 5.54297 2.16406 6.44141 1.64062C7.33984 1.11719 8.29297 0.714844 9.30078 0.433594C10.3086 0.152344 11.375 0.0078125 12.5 0ZM12.5 22.5C13.4609 22.5 14.3867 22.375 15.2773 22.125C16.168 21.875 17.0039 21.5234 17.7852 21.0703C18.5664 20.6172 19.2773 20.0664 19.918 19.418C20.5586 18.7695 21.1055 18.0625 21.5586 17.2969C22.0117 16.5312 22.3672 15.6953 22.625 14.7891C22.8828 13.8828 23.0078 12.9531 23 12C23 11.0391 22.875 10.1133 22.625 9.22266C22.375 8.33203 22.0234 7.49609 21.5703 6.71484C21.1172 5.93359 20.5664 5.22266 19.918 4.58203C19.2695 3.94141 18.5625 3.39453 17.7969 2.94141C17.0312 2.48828 16.1953 2.13281 15.2891 1.875C14.3828 1.61719 13.4531 1.49219 12.5 1.5C11.5391 1.5 10.6133 1.625 9.72266 1.875C8.83203 2.125 7.99609 2.47656 7.21484 2.92969C6.43359 3.38281 5.72266 3.93359 5.08203 4.58203C4.44141 5.23047 3.89453 5.9375 3.44141 6.70312C2.98828 7.46875 2.63281 8.30469 2.375 9.21094C2.11719 10.1172 1.99219 11.0469 2 12C2 12.9609 2.125 13.8867 2.375 14.7773C2.625 15.668 2.97656 16.5039 3.42969 17.2852C3.88281 18.0664 4.43359 18.7773 5.08203 19.418C5.73047 20.0586 6.4375 20.6055 7.20312 21.0586C7.96875 21.5117 8.80469 21.8672 9.71094 22.125C10.6172 22.3828 11.5469 22.5078 12.5 22.5Z" fill="#34C759"/>
</g>
<defs>
<clipPath id="clip0_883_684">
<rect width="24" height="24" fill="white" transform="translate(0.5)"/>
</clipPath>
</defs>
</svg>
