<svg width="20" height="21" viewBox="0 0 20 21" fill="none" xmlns="http://www.w3.org/2000/svg">
<path d="M5.83301 9.66699H7.49967V11.3337H5.83301V9.66699ZM5.83301 13.0003H7.49967V14.667H5.83301V13.0003ZM9.16634 9.66699H10.833V11.3337H9.16634V9.66699ZM9.16634 13.0003H10.833V14.667H9.16634V13.0003ZM12.4997 9.66699H14.1663V11.3337H12.4997V9.66699ZM12.4997 13.0003H14.1663V14.667H12.4997V13.0003Z" fill="#1E1E1E"/>
<path d="M4.16667 18.8337H15.8333C16.7525 18.8337 17.5 18.0862 17.5 17.167V5.50033C17.5 4.58116 16.7525 3.83366 15.8333 3.83366H14.1667V2.16699H12.5V3.83366H7.5V2.16699H5.83333V3.83366H4.16667C3.2475 3.83366 2.5 4.58116 2.5 5.50033V17.167C2.5 18.0862 3.2475 18.8337 4.16667 18.8337ZM15.8333 7.16699L15.8342 17.167H4.16667V7.16699H15.8333Z" fill="#1E1E1E"/>
</svg>
