<svg width="25" height="24" viewBox="0 0 25 24" fill="none" xmlns="http://www.w3.org/2000/svg">
<path d="M12.5 12C14.3565 12 16.137 11.2625 17.4497 9.94975C18.7625 8.63699 19.5 6.85652 19.5 5H5.5C5.5 6.85652 6.2375 8.63699 7.55025 9.94975C8.86301 11.2625 10.6435 12 12.5 12ZM12.5 12C14.3565 12 16.137 12.7375 17.4497 14.0503C18.7625 15.363 19.5 17.1435 19.5 19H5.5C5.5 17.1435 6.2375 15.363 7.55025 14.0503C8.86301 12.7375 10.6435 12 12.5 12ZM5.5 2H19.5M5.5 22H19.5" stroke="#FFCC00" stroke-width="1.5" stroke-linecap="round" stroke-linejoin="round"/>
</svg>
