<svg width="25" height="24" viewBox="0 0 25 24" fill="none" xmlns="http://www.w3.org/2000/svg">
<path fill-rule="evenodd" clip-rule="evenodd" d="M10.1508 4L7.03982 11H10.4868C11.1768 11 11.6628 11.675 11.4448 12.33L9.78882 17.297L17.0868 10H14.5168C14.3446 9.99996 14.1753 9.95591 14.025 9.87204C13.8746 9.78816 13.7482 9.66723 13.6577 9.52075C13.5673 9.37426 13.5157 9.20708 13.508 9.03508C13.5004 8.86308 13.5368 8.69197 13.6138 8.538L15.8828 4H10.1508ZM8.58482 2.6C8.74682 2.235 9.10782 2 9.50782 2H17.4848C18.2348 2 18.7238 2.79 18.3878 3.462L16.1188 8H19.4768C20.3768 8 20.8268 9.088 20.1908 9.724L8.23782 21.677C7.48382 22.431 6.22782 21.655 6.56582 20.644L9.11382 13H5.51582C5.34757 13 5.18198 12.958 5.0341 12.8777C4.88622 12.7974 4.76073 12.6815 4.66903 12.5404C4.57733 12.3994 4.52233 12.2376 4.50902 12.0699C4.49572 11.9022 4.52452 11.7338 4.59282 11.58L8.58482 2.6Z" fill="#9747FF"/>
</svg>
