<svg width="20" height="21" viewBox="0 0 20 21" fill="none" xmlns="http://www.w3.org/2000/svg">
<path d="M5.33325 4.46627C6.57518 3.24918 8.24725 2.57138 9.98611 2.58016C11.725 2.58894 13.3901 3.2836 14.6197 4.51317C15.8493 5.74275 16.5439 7.40789 16.5527 9.14674C16.5615 10.8856 15.8837 12.5577 14.6666 13.7996L11.1782 17.2879C10.8657 17.6004 10.4419 17.7759 9.99991 17.7759C9.55797 17.7759 9.13413 17.6004 8.82158 17.2879L5.33325 13.7996C4.09565 12.5619 3.40039 10.8832 3.40039 9.13294C3.40039 7.38263 4.09565 5.70399 5.33325 4.46627Z" stroke="#1E1E1E" stroke-width="1.5" stroke-linejoin="round"/>
<path d="M10 11.6328C11.3807 11.6328 12.5 10.5135 12.5 9.13281C12.5 7.7521 11.3807 6.63281 10 6.63281C8.61929 6.63281 7.5 7.7521 7.5 9.13281C7.5 10.5135 8.61929 11.6328 10 11.6328Z" stroke="#1E1E1E" stroke-width="1.5" stroke-linecap="round" stroke-linejoin="round"/>
</svg>
