<svg width="25" height="24" viewBox="0 0 25 24" fill="none" xmlns="http://www.w3.org/2000/svg">
<path d="M18.3499 11.7749C18.4865 11.6335 18.5621 11.444 18.5604 11.2474C18.5587 11.0507 18.4798 10.8626 18.3408 10.7236C18.2017 10.5845 18.0136 10.5056 17.8169 10.5039C17.6203 10.5022 17.4308 10.5778 17.2894 10.7144L11.8144 16.1894L9.33939 13.7144C9.19794 13.5778 9.00849 13.5022 8.81184 13.5039C8.61519 13.5056 8.42709 13.5845 8.28803 13.7236C8.14897 13.8626 8.0701 14.0507 8.06839 14.2474C8.06668 14.444 8.14227 14.6335 8.27889 14.7749L11.2789 17.7749C11.4195 17.9155 11.6103 17.9945 11.8091 17.9945C12.008 17.9945 12.1987 17.9155 12.3394 17.7749L18.3394 11.7749H18.3499Z" fill="#274B93"/>
<path fill-rule="evenodd" clip-rule="evenodd" d="M6.61955 3.03C6.77008 2.58432 7.05652 2.19703 7.43859 1.92258C7.82065 1.64814 8.27913 1.50035 8.74955 1.5H9.15155C9.67055 0.603 10.6395 0 11.7465 0H13.2465C14.3565 0 15.3315 0.603 15.8415 1.5H16.2435C16.714 1.50035 17.1724 1.64814 17.5545 1.92258C17.9366 2.19703 18.223 2.58432 18.3735 3.03C19.317 3.081 19.9785 3.1995 20.5335 3.4845C21.3782 3.91746 22.0656 4.60481 22.4985 5.4495C22.989 6.4125 22.989 7.6695 22.989 10.1895V16.7895C22.989 19.3095 22.989 20.5695 22.4985 21.5295C22.0673 22.3754 21.3795 23.0632 20.5335 23.4945C19.5705 23.985 18.3135 23.985 15.7935 23.985H9.19355C6.67355 23.985 5.41355 23.985 4.45355 23.4945C3.60764 23.0632 2.91983 22.3754 2.48855 21.5295C1.99805 20.5665 1.99805 19.3095 1.99805 16.7895V10.1895C1.99805 7.6695 1.99805 6.4095 2.48855 5.4495C2.9215 4.60481 3.60886 3.91746 4.45355 3.4845C5.01155 3.201 5.66855 3.081 6.61355 3.03H6.61955ZM9.58955 2.994C9.7212 2.994 9.85053 2.95934 9.96454 2.89351C10.0785 2.82769 10.1732 2.73301 10.239 2.619L10.455 2.244C10.5866 2.01548 10.7761 1.82568 11.0045 1.69375C11.2328 1.56181 11.4918 1.4924 11.7555 1.4925H13.2555C13.5191 1.49224 13.7781 1.56143 14.0064 1.6931C14.2347 1.82476 14.4243 2.01426 14.556 2.2425L14.772 2.6175C14.8379 2.73151 14.9325 2.82619 15.0466 2.89201C15.1606 2.95784 15.2899 2.9925 15.4215 2.9925H16.2555C16.4545 2.9925 16.6452 3.07152 16.7859 3.21217C16.9265 3.35282 17.0055 3.54359 17.0055 3.7425V5.2425C17.0055 5.44141 16.9265 5.63218 16.7859 5.77283C16.6452 5.91348 16.4545 5.9925 16.2555 5.9925H8.75555C8.55663 5.9925 8.36587 5.91348 8.22522 5.77283C8.08456 5.63218 8.00555 5.44141 8.00555 5.2425V3.7425C8.00555 3.54359 8.08456 3.35282 8.22522 3.21217C8.36587 3.07152 8.55663 2.9925 8.75555 2.9925L9.58955 2.994ZM6.49955 4.539L6.36605 4.548C5.70905 4.602 5.37155 4.6995 5.13755 4.818C4.57309 5.10562 4.11416 5.56454 3.82655 6.129C3.70655 6.363 3.60905 6.7005 3.55655 7.359C3.50105 8.034 3.49955 8.904 3.49955 10.194V16.794C3.49955 18.078 3.50105 18.954 3.55655 19.629C3.61055 20.2845 3.70805 20.622 3.82655 20.856C4.11455 21.42 4.57355 21.879 5.13755 22.167C5.37155 22.287 5.70905 22.3845 6.36605 22.437C7.04105 22.4925 7.91105 22.494 9.20105 22.494H15.801C17.0865 22.494 17.961 22.4925 18.636 22.437C19.293 22.383 19.6305 22.287 19.8645 22.167C20.4285 21.879 20.8875 21.42 21.1755 20.856C21.2955 20.622 21.393 20.286 21.4455 19.6275C21.501 18.9525 21.5025 18.0825 21.5025 16.7925V10.1925C21.5025 8.907 21.501 8.0325 21.4455 7.3575C21.3915 6.7005 21.294 6.363 21.1755 6.129C20.8879 5.56454 20.429 5.10562 19.8645 4.818C19.6305 4.698 19.293 4.6005 18.636 4.548L18.5025 4.539V5.2425C18.5025 5.83924 18.2655 6.41153 17.8435 6.83349C17.4216 7.25545 16.8493 7.4925 16.2525 7.4925H8.75255C8.15581 7.4925 7.58351 7.25545 7.16156 6.83349C6.7396 6.41153 6.50255 5.83924 6.50255 5.2425V4.5375L6.49955 4.539Z" fill="#274B93"/>
</svg>
