<svg width="75" height="62" viewBox="0 0 75 62" fill="none" xmlns="http://www.w3.org/2000/svg">
<path d="M74 31C74 47.5685 57.6584 61 37.5 61C17.3416 61 1 47.5685 1 31C1 14.4315 17.3416 1 37.5 1C57.6584 1 74 14.4315 74 31Z" fill="#274B93"/>
<path d="M14.4769 54.2803C16.4521 46.2907 26.0086 40.2308 37.5 40.2308C48.9914 40.2308 58.5479 46.2907 60.5231 54.2803C54.2424 58.4815 46.229 61 37.5 61C28.771 61 20.7576 58.4815 14.4769 54.2803Z" fill="#072261"/>
<path d="M48.7308 26.9615C48.7308 32.1658 43.5978 36.3846 37.266 36.3846C30.9342 36.3846 25.8013 32.1658 25.8013 26.9615C25.8013 21.7573 30.9342 17.5385 37.266 17.5385C43.5978 17.5385 48.7308 21.7573 48.7308 26.9615Z" fill="#072261"/>
<path d="M37.5 0.5C57.8383 0.5 74.5 14.0681 74.5 31C74.5 40.4869 69.2681 48.9161 61.0908 54.4961L61.0928 54.501L60.8008 54.6963C56.5111 57.5656 51.4286 59.6546 45.8701 60.7139C45.8434 60.719 45.8168 60.7244 45.79 60.7295C45.5116 60.782 45.232 60.8316 44.9512 60.8789C44.9407 60.8807 44.9304 60.883 44.9199 60.8848C44.0398 61.0324 43.1486 61.1549 42.2471 61.25C42.1639 61.2588 42.0804 61.2661 41.9971 61.2744C41.8064 61.2935 41.6154 61.3115 41.4238 61.3281C41.2967 61.3392 41.1695 61.3494 41.042 61.3594C40.8588 61.3737 40.6752 61.3873 40.4912 61.3994C40.3979 61.4056 40.3045 61.4114 40.2109 61.417C40.0099 61.429 39.8084 61.4399 39.6064 61.4492C39.4991 61.4542 39.3917 61.4596 39.2842 61.4639C39.098 61.4712 38.9115 61.4764 38.7246 61.4814C38.6056 61.4846 38.4865 61.488 38.3672 61.4902C38.0789 61.4957 37.7899 61.5 37.5 61.5C37.2098 61.5 36.9204 61.4957 36.6318 61.4902C36.5126 61.488 36.3934 61.4846 36.2744 61.4814C36.0875 61.4764 35.901 61.4712 35.7148 61.4639C35.6073 61.4596 35.4999 61.4542 35.3926 61.4492C35.1906 61.4399 34.9892 61.429 34.7881 61.417C34.6946 61.4114 34.6011 61.4056 34.5078 61.3994C34.3238 61.3873 34.1403 61.3737 33.957 61.3594C33.8296 61.3494 33.7023 61.3392 33.5752 61.3281C33.3837 61.3115 33.1926 61.2935 33.002 61.2744C32.9186 61.2661 32.8352 61.2588 32.752 61.25C31.8505 61.1548 30.9592 61.0324 30.0791 60.8848C30.0687 60.883 30.0583 60.8807 30.0479 60.8789C29.7671 60.8316 29.4874 60.782 29.209 60.7295C29.1823 60.7244 29.1556 60.719 29.1289 60.7139C23.5708 59.6546 18.4887 57.5654 14.1992 54.6963L13.9072 54.501L13.9082 54.4961C5.73126 48.9161 0.5 40.4867 0.5 31C0.5 14.0681 17.1617 0.5 37.5 0.5Z" stroke="#1E1E1E"/>
</svg>
